<svg width="32" height="32" viewBox="0 0 32 32" fill="none" xmlns="http://www.w3.org/2000/svg">
<path d="M25.0532 5.96044C24.1587 6.01156 23.2615 5.93978 22.3865 5.74711C21.3311 5.38571 20.344 4.84934 19.4665 4.16044C18.7158 3.62829 18.003 3.04467 17.3332 2.41377C17.0492 2.14852 16.6751 2.00098 16.2865 2.00098C15.8979 2.00098 15.5238 2.14852 15.2398 2.41377C14.5878 3.02472 13.9023 3.59894 13.1865 4.13377C12.3036 4.83173 11.3128 5.38115 10.2532 5.76044C9.25656 5.98562 8.23276 6.06645 7.21317 6.00044C6.37831 5.96587 5.54596 5.88575 4.71983 5.76044C4.51796 5.73051 4.31213 5.74155 4.11461 5.79288C3.91709 5.84421 3.73193 5.93479 3.57018 6.05922C3.40842 6.18365 3.27337 6.33938 3.1731 6.51712C3.07282 6.69486 3.00936 6.89098 2.9865 7.09377C2.91983 7.73377 2.7465 9.40044 2.6665 11.2538C2.55439 13.1055 2.67082 14.9639 3.01317 16.7871C3.97856 19.8077 5.7541 22.5056 8.1465 24.5871C10.0481 26.3808 12.11 27.9964 14.3065 29.4138C14.8951 29.8179 15.5924 30.0343 16.3065 30.0343C17.0206 30.0343 17.7178 29.8179 18.3065 29.4138C20.3865 27.9595 22.332 26.3218 24.1198 24.5204C26.3722 22.4237 28.0402 19.777 28.9598 16.8404" stroke="#1A202C" stroke-width="2.5" stroke-linecap="round" stroke-linejoin="round"/>
<path d="M14.6667 14.6667L18.48 18.48C18.5037 18.5059 18.5326 18.5265 18.5647 18.5406C18.5968 18.5548 18.6316 18.5621 18.6667 18.5621C18.7018 18.5621 18.7365 18.5548 18.7686 18.5406C18.8007 18.5265 18.8296 18.5059 18.8533 18.48L29.3333 8" stroke="#3563E9" stroke-width="2.5" stroke-linecap="round" stroke-linejoin="round"/>
</svg>
